<svg width="129" height="24" viewBox="0 0 129 24" fill="none" xmlns="http://www.w3.org/2000/svg">
<path fill-rule="evenodd" clip-rule="evenodd" d="M64.08 14.9558L59.8728 5.76001H58.32L63.6295 17.28H64.5559L69.84 5.76001H68.2872L64.08 14.9558Z" fill="white"/>
<path fill-rule="evenodd" clip-rule="evenodd" d="M85.6375 7.49036V6.00712H84.24V17.28H85.6375V9.59136C86.2251 8.1329 87.6223 7.09492 89.1422 7.09492C89.2159 7.09492 89.6568 7.09492 89.8038 7.1194L90 5.80926C89.8532 5.78449 89.3627 5.76001 89.1668 5.76001C87.4261 5.76001 86.152 6.69949 85.6375 7.49036Z" fill="white"/>
<path fill-rule="evenodd" clip-rule="evenodd" d="M106.547 13.5528C105.63 15.0534 104.1 15.9728 102.393 15.9728C101.399 15.9728 100.507 15.6342 99.7681 15.1501C98.6464 14.3998 97.9329 13.0444 97.9329 11.5199C97.9329 10.092 98.5445 8.80911 99.5641 8.0106C100.379 7.38127 101.399 7.06689 102.367 7.06689C104.508 7.06689 106.038 8.47048 106.547 9.29324V13.5528ZM106.598 7.52648C105.553 6.41331 104.024 5.76001 102.342 5.76001C100.94 5.76001 99.6149 6.24385 98.6464 6.99414C97.3209 8.0591 96.48 9.68036 96.48 11.5199C96.48 13.5046 97.4233 15.2228 98.9522 16.2393C100.099 17.0136 101.322 17.28 102.418 17.28C104.228 17.28 105.731 16.5297 106.598 15.4163V17.0378H108V6.00193H106.598V7.52648Z" fill="white"/>
<path fill-rule="evenodd" clip-rule="evenodd" d="M126.689 5.76001L123.249 14.8042L119.609 5.76001H118.711L115.071 14.8042L111.631 5.76001H110.16L114.548 17.28H115.47L119.16 8.10927L122.85 17.28H123.772L128.16 5.76001H126.689Z" fill="white"/>
<path fill-rule="evenodd" clip-rule="evenodd" d="M51.8399 7.12138C53.8714 7.12138 55.5805 8.50757 56.084 10.3822H47.596C48.0995 8.50757 49.8087 7.12138 51.8399 7.12138ZM54.8214 14.743C54.0365 15.4696 52.9913 15.9184 51.8399 15.9184C49.4555 15.9184 47.5124 14.0098 47.4477 11.6408H57.594C57.5949 11.6003 57.6 11.5607 57.6 11.5199C57.6 8.33868 55.0211 5.76001 51.8399 5.76001C48.659 5.76001 46.08 8.33868 46.08 11.5199C46.08 14.7011 48.659 17.28 51.8399 17.28C53.369 17.28 54.7546 16.6795 55.7856 15.7075L54.8214 14.743Z" fill="white"/>
<path fill-rule="evenodd" clip-rule="evenodd" d="M76.32 7.12138C78.3513 7.12138 80.0607 8.50757 80.5643 10.3822H72.076C72.5796 8.50757 74.2887 7.12138 76.32 7.12138ZM79.3013 14.743C78.5167 15.4696 77.4711 15.9184 76.32 15.9184C73.9355 15.9184 71.9924 14.0098 71.9277 11.6408H82.074C82.0749 11.6003 82.08 11.5607 82.08 11.5199C82.08 8.33868 79.5013 5.76001 76.32 5.76001C73.139 5.76001 70.56 8.33868 70.56 11.5199C70.56 14.7011 73.139 17.28 76.32 17.28C77.8489 17.28 79.2345 16.6795 80.2658 15.7075L79.3013 14.743Z" fill="white"/>
<path fill-rule="evenodd" clip-rule="evenodd" d="M92.88 17.28H94.32V0H92.88V17.28Z" fill="white"/>
<path fill-rule="evenodd" clip-rule="evenodd" d="M28.8 0H5.76L0 5.76L17.28 23.04L34.56 5.76L28.8 0Z" fill="#83D3E2"/>
<path fill-rule="evenodd" clip-rule="evenodd" d="M10.7276 5.03998L5.03998 10.7277L17.3521 23.04L23.04 17.3523L10.7276 5.03998Z" fill="#97DFEB"/>
<path fill-rule="evenodd" clip-rule="evenodd" d="M11.52 5.76L5.7597 11.52L0 5.76L5.7597 0L11.52 5.76Z" fill="#BDE8EE"/>
<path fill-rule="evenodd" clip-rule="evenodd" d="M17.2999 0H5.76001L17.9898 12.24L23.76 6.46508L17.2999 0Z" fill="#83D3E2"/>
<path fill-rule="evenodd" clip-rule="evenodd" d="M28.8 0H17.28L28.8 11.52L34.56 5.76L28.8 0Z" fill="#40A8C6"/>
<path fill-rule="evenodd" clip-rule="evenodd" d="M28.8 11.52L23.04 17.28L17.28 11.52L23.04 5.76001L28.8 11.52Z" fill="#5DC8E0"/>
</svg>
