<svg width="130" height="17" viewBox="0 0 130 17" fill="none" xmlns="http://www.w3.org/2000/svg">
<path d="M121.794 12.0619C121.794 15.1921 123.446 16.9191 126.588 16.9191C127.942 16.9191 129.025 16.6492 129.973 16.1905L129.025 13.2223C128.518 13.4991 127.951 13.6474 127.373 13.654C126.181 13.654 125.585 12.9524 125.585 11.6572V7.3667H129.296V4.34448H125.558V0.107971L121.794 1.34924V12.0619Z" fill="white"/>
<path d="M96.9584 9.06656C97.1149 8.48705 97.4609 7.97607 97.9416 7.61442C98.4223 7.25278 99.0102 7.06111 99.6125 7.06973C100.831 7.06973 101.779 7.77132 102.131 9.06656H96.9584ZM105.923 10.4158C105.869 6.63799 103.269 3.93958 99.6125 3.93958C95.9021 3.93958 93.1125 6.74592 93.1125 10.4158C93.1125 13.9237 95.6854 16.892 99.5854 16.892C102.402 16.892 104.948 15.138 105.706 12.7094H102.05C101.508 13.465 100.696 13.8427 99.5854 13.8427C98.2313 13.8427 97.175 12.9253 96.8771 11.4142H105.923V10.4427V10.4158Z" fill="white"/>
<path d="M116.079 16.5413H119.817V9.03966C119.817 7.52855 119.356 6.2603 118.517 5.34284C118.088 4.88791 117.566 4.52971 116.987 4.29233C116.408 4.05496 115.784 3.94391 115.158 3.96665C114.444 3.95758 113.735 4.09685 113.078 4.3756C112.42 4.65435 111.828 5.06646 111.34 5.5857V4.31744H107.548V16.5413H111.34V10.8746C111.34 8.6349 112.26 7.42062 113.913 7.42062C115.213 7.42062 116.079 8.39205 116.079 9.84919V16.5413Z" fill="white"/>
<path d="M87.8042 16.5412H91.5417V9.17454C91.5417 5.99042 89.7 3.99359 86.9646 3.99359C85.15 3.99359 83.6604 4.72216 82.6313 6.09835C81.8188 4.74915 80.4375 3.99359 78.7042 3.99359C77.1875 3.99359 75.9958 4.50629 75.1021 5.53169V4.3174H71.3104V16.5412H75.1021V10.5507C75.1021 8.55391 75.9146 7.42057 77.4313 7.42057C78.8396 7.42057 79.5438 8.2301 79.5438 9.71422V16.5412H83.3354V10.5507C83.3354 8.55391 84.2021 7.42057 85.7729 7.42057C86.9917 7.42057 87.8042 8.41899 87.8042 9.79518V16.5412Z" fill="white"/>
<path d="M61.1 16.5413H64.8646V12.6826C64.8646 9.28256 66.4083 7.90637 68.8729 7.90637C69.4958 7.90637 69.9021 7.98732 69.9021 7.98732V4.26352C69.6312 4.18256 69.3875 4.15558 69.0354 4.15558C67.2208 4.15558 65.8667 5.04605 64.8646 6.77304V4.34447H61.0729V16.5413H61.1Z" fill="white"/>
<path d="M50.4833 9.06656C50.6399 8.48705 50.9858 7.97607 51.4665 7.61442C51.9472 7.25278 52.5352 7.06111 53.1375 7.06973C54.3833 7.06973 55.3312 7.77132 55.6562 9.06656H50.4833ZM59.475 10.4158C59.3937 6.63799 56.7667 3.93958 53.1375 3.93958C49.4271 3.93958 46.6375 6.74592 46.6375 10.4158C46.6375 13.9237 49.2104 16.892 53.1375 16.892C55.9271 16.892 58.5 15.138 59.2312 12.7094H55.575C55.0333 13.465 54.2208 13.8427 53.1375 13.8427C51.7833 13.8427 50.7 12.9253 50.4291 11.4142H59.475V10.4427V10.4158Z" fill="white"/>
<path d="M32.8521 7.3667H38.1063V12.0619C38.1063 15.1921 39.7313 16.9191 42.9 16.9191C44.2542 16.9191 45.3375 16.6492 46.2854 16.1905L45.3104 13.2223C44.8117 13.4948 44.2542 13.643 43.6854 13.654C42.4667 13.654 41.8709 12.9524 41.8709 11.6572V7.3667H45.5813V4.34448H41.8709V0.107971L38.1063 1.34924V4.3175H32.8521V0.161939L29.0875 1.34924V12.0619C29.0875 15.1921 30.7125 16.9191 33.8813 16.9191C35.2354 16.9191 36.3188 16.6492 37.2667 16.1905L36.2917 13.2223C35.793 13.4948 35.2354 13.643 34.6667 13.654C33.4479 13.654 32.8521 12.9524 32.8521 11.6572V7.3667Z" fill="white"/>
<path d="M18.5521 9.06656C18.7086 8.48705 19.0546 7.97607 19.5353 7.61442C20.016 7.25278 20.604 7.06111 21.2063 7.06973C22.425 7.06973 23.4 7.77132 23.725 9.06656H18.5521ZM27.5167 10.4158C27.4625 6.63799 24.8625 3.93958 21.2063 3.93958C17.4959 3.93958 14.7063 6.74592 14.7063 10.4158C14.7063 13.9237 17.2792 16.892 21.1792 16.892C23.9959 16.892 26.5417 15.138 27.3 12.7094H23.6438C23.1021 13.465 22.2896 13.8427 21.1792 13.8427C19.825 13.8427 18.7688 12.9253 18.4709 11.4142H27.5167V10.4427V10.4158Z" fill="white"/>
<path d="M7.66458 13.3582H3.79167V10.0662H7.66458C8.55833 10.0662 9.45208 10.6329 9.45208 11.7392C9.45208 12.6836 8.72083 13.3582 7.66458 13.3582ZM3.79167 3.67095H7.17708C8.42292 3.67095 8.96458 4.48047 8.96458 5.29C8.96458 6.45031 8.04375 6.99 7.17708 6.99H3.79167V3.67095ZM11.0229 8.09635C11.0229 8.09635 13 7.07095 13 4.58841C13 2.64555 11.2938 0.459839 7.90833 0.459839H0V16.5694H7.90833C12.2417 16.5694 13.4333 13.8709 13.4333 12.036C13.4333 9.09476 11.0229 8.09635 11.0229 8.09635Z" fill="white"/>
</svg>
