<svg width="26" height="28" viewBox="0 0 26 28" fill="none" xmlns="http://www.w3.org/2000/svg">
<path fill-rule="evenodd" clip-rule="evenodd" d="M12.0554 1.02961C11.1349 1.09425 10.0817 1.29236 9.14703 1.57669C8.35105 1.81885 7.18341 2.33457 6.43821 2.77314C4.0199 4.1964 2.12916 6.349 1.02333 8.93801C-0.288307 12.0089 -0.341613 15.5922 0.87811 18.7022C1.08853 19.2387 1.50781 20.1086 1.77403 20.5609C4.12301 24.5522 8.39318 27.0024 13 27.0024C17.6068 27.0024 21.877 24.5522 24.226 20.5609C24.4922 20.1086 24.9115 19.2387 25.1219 18.7022C26.3416 15.5922 26.2883 12.0089 24.9767 8.93801C23.8708 6.349 21.9801 4.1964 19.5618 2.77314C19.1095 2.50692 18.2396 2.08765 17.7031 1.87723C15.9496 1.1895 13.9826 0.894281 12.0554 1.02961ZM13.6726 4.36507C14.2241 4.55226 14.6809 4.95506 14.9371 5.48004C15.0918 5.79698 15.1434 6.02803 15.1452 6.41119C15.147 6.80993 15.0894 7.05801 14.9185 7.38695C14.5292 8.13617 13.8314 8.56452 13 8.56452C12.1686 8.56452 11.4708 8.13617 11.0815 7.38695C10.9106 7.05801 10.853 6.80993 10.8548 6.41119C10.8566 6.0268 10.9082 5.79695 11.0648 5.47613C11.1689 5.26278 11.3943 4.95229 11.5354 4.82776C11.7921 4.60122 12.1755 4.3964 12.4936 4.31595C12.7698 4.24608 13.3993 4.27231 13.6726 4.36507ZM20.8571 10.799C21.3547 10.9315 21.6997 11.4264 21.6469 11.9319C21.6081 12.3033 21.3783 12.6353 21.0445 12.8026L20.8874 12.8813L18.9982 12.8981C17.3036 12.9131 17.0946 12.9205 16.9695 12.9695C16.657 13.0921 16.4112 13.3461 16.2947 13.6667C16.27 13.7348 16.255 15.0985 16.2436 18.3285L16.2274 22.894L16.1365 23.0907C16.0239 23.3346 15.8339 23.5149 15.5574 23.6402C15.3707 23.7249 15.324 23.7333 15.0958 23.7229C14.6491 23.7027 14.3177 23.4829 14.1289 23.0818C14.0413 22.8957 14.0343 22.8382 13.7896 20.2744C13.6137 18.4323 13.5259 17.6306 13.493 17.5677C13.2671 17.1365 12.7329 17.1365 12.507 17.5677C12.4741 17.6306 12.3863 18.4323 12.2104 20.2744C11.9657 22.8382 11.9587 22.8957 11.8711 23.0818C11.6823 23.4829 11.3509 23.7027 10.9042 23.7229C10.676 23.7333 10.6293 23.7249 10.4426 23.6402C10.1661 23.5149 9.9761 23.3346 9.86347 23.0907L9.77263 22.894L9.75642 18.3285C9.74496 15.0985 9.73 13.7348 9.70525 13.6667C9.58885 13.3461 9.34303 13.0921 9.03053 12.9695C8.90537 12.9205 8.69643 12.9131 7.00182 12.8981L5.11263 12.8813L4.95555 12.8026C4.49339 12.571 4.24839 12.036 4.38671 11.5602C4.44695 11.353 4.49915 11.2589 4.63813 11.1068C4.76685 10.966 4.95445 10.8488 5.12813 10.8008C5.3456 10.7408 20.6317 10.739 20.8571 10.799Z" fill="#212121"/>
</svg>
