<?xml version="1.0" encoding="utf-8"?>
<!-- Generator: Adobe Illustrator 21.0.0, SVG Export Plug-In . SVG Version: 6.00 Build 0)  -->
<svg version="1.1" id="Layer_1" xmlns="http://www.w3.org/2000/svg" xmlns:xlink="http://www.w3.org/1999/xlink" x="0px" y="0px"
	 viewBox="0 0 191 61" style="enable-background:new 0 0 191 61;" xml:space="preserve">
<path id="mask" style="fill:#DBE0FA;" d="M146.4,19.9c-1.9,0-13-0.2-24.5-0.4c-26.3-0.4-58.8,1.3-86.3,4.4
	c-24.4,2.8-35,5.6-34.8,8.7C0.9,33.8,2,35,3.1,35.4c1.5,0.6,2,0.2,1.7-1.1c-0.3-1.4,2.1-2.2,10.1-3.4c16.7-2.7,48.7-5.3,72.2-6.1
	c2-0.1-0.8,0.8-6.3,2c-11.2,2.3-22.3,6.1-23.8,7.8c-0.6,0.6-0.4,2,0.4,3c1.2,1.6,2.8,1.7,10.5,0.7c15.2-1.9,39.4-2.8,60.1-2.6
	c30.5,0.5,30.9,0.6,30,2.2c-1,1.9-0.5,2,6,1c5.9-0.9,8.2-2,8.4-4c0.3-2.6-3-3.4-17.1-4.1c-18.1-0.9-42.2-1.2-55.1-0.8
	c-10.8,0.3,2.7-1.5,19.7-2.7c15.9-1.1,21.9-0.9,43.5,1.3c13.8,1.4,25.4,2.2,25.9,1.9c2-1.5-0.2-4.2-4.3-5.5
	C180.6,23.6,152.9,19.9,146.4,19.9z"/>
<path id="writeon" style="fill:#FFFFFF;stroke:#000000;stroke-width:7;stroke-miterlimit:10;" d="M5.5,36.1
	c-2.2-1.7-2.4-5.8-2.4-5.8s36.7-6,49-6.3c12.3-0.2,50.9-5.2,78.9-3.2s61.3,8.4,61.3,8.4L166,26c0,0-38.3-1.8-58.8-0.8
	c-19.8,1-30.6,2.3-46.8,7.8c-5.6,1.9-3.2,6-3.2,6s4.5-1.9,15.7-3.2c11.2-1.3,20.8-5,43.3-3.9s44.2-0.6,53,2.3s-14,4.8-14,4.8"/>
</svg>
