<svg width="191" height="61" viewBox="0 0 191 61" fill="none" xmlns="http://www.w3.org/2000/svg">
<g clip-path="url(#clip0)">
<path fill-rule="evenodd" clip-rule="evenodd" d="M146.418 19.8595C144.507 19.8416 133.409 19.6636 121.959 19.4382C95.7073 19.0146 63.187 20.7371 35.6226 23.8442C11.2071 26.6574 0.669778 29.4249 0.846096 32.5579C0.922946 33.7641 1.95528 34.9793 3.09826 35.3723C4.57782 35.9302 5.11089 35.5236 4.79912 34.2858C4.50315 32.9305 6.89296 32.0562 14.9456 30.8677C31.6857 28.2174 63.6119 25.5778 87.1556 24.7998C89.1998 24.7161 86.3244 25.6446 80.9032 26.8285C69.7086 29.1488 58.5592 32.9102 57.1316 34.6314C56.567 35.273 56.7455 36.6125 57.5587 37.6786C58.7785 39.2778 60.3213 39.3658 68.1074 38.3806C83.3115 36.4803 107.474 35.5464 128.244 35.8302C158.788 36.353 159.14 36.4004 158.199 38.0675C157.225 39.9694 157.695 40.0327 164.157 39.1085C170.017 38.2228 172.321 37.0978 172.589 35.101C172.937 32.5169 169.578 31.7061 155.442 30.9997C137.383 30.124 113.277 29.7501 100.307 30.1572C89.4982 30.4965 103.026 28.6098 120.046 27.4322C135.978 26.3473 141.93 26.5504 163.52 28.7383C177.326 30.1179 188.932 30.9622 189.449 30.673C191.448 29.1482 189.298 26.4671 185.164 25.1933C180.592 23.6213 152.871 19.8909 146.418 19.8595Z" fill="#DBE0FA"/>
</g>
<defs>
<clipPath id="clip0">
<rect width="187.141" height="35.3185" fill="white" transform="translate(5.19238 0.255859) rotate(7.66444)"/>
</clipPath>
</defs>
</svg>
