<svg width="101" height="142" viewBox="0 0 101 142" fill="none" xmlns="http://www.w3.org/2000/svg">
<g clip-path="url(#clip0)">
<path fill-rule="evenodd" clip-rule="evenodd" d="M22.8907 2.29778C16.8245 4.54729 16.5913 7.02807 20.5409 25.5467C22.356 33.8256 24.6202 36.4223 26.7298 32.5325C27.2321 31.5265 27.3804 27.1183 26.7912 22.8446C26.2021 18.5708 26.1496 14.7326 26.535 14.548C27.3392 13.9441 42.7348 29.4224 49.5782 37.6983C62.8455 53.8315 73.8054 79.4528 76.6337 100.805C78.5361 115.201 78.5974 134.125 76.7883 135.902C74.8451 137.781 77.8811 141.684 80.7301 141.012C82.5903 140.558 82.8912 139.284 83.556 129.563C85.0348 107.387 83.0127 88.7833 77.2215 73.9532C67.5022 48.8675 52.8749 28.8298 32.4004 12.8685L24.2172 6.43699L34.9455 8.44207C43.9304 10.0794 45.9757 10.8492 47.1166 12.9269C48.4422 15.39 48.4422 15.39 49.6813 13.4115C51.4228 10.427 49.5606 7.52846 44.6315 5.15126C38.579 2.25512 26.946 0.719881 22.8907 2.29778Z" fill="#DBE0FA"/>
</g>
<defs>
<clipPath id="clip0">
<rect width="82.4889" height="131.081" fill="white" transform="translate(19.0176 0.0708008) rotate(8.09674)"/>
</clipPath>
</defs>
</svg>
