<svg width="277" height="136" viewBox="0 0 277 136" fill="none" xmlns="http://www.w3.org/2000/svg">
<g clip-path="url(#clip0)">
<path d="M270.278 61.9481L270.277 61.9472C268.771 59.4272 266.169 56.0724 264.503 54.4632L264.503 54.4632L264.495 54.4557C254.252 44.984 233.433 35.6727 209.721 29.9016C200.69 27.6943 180.894 24.4547 171.025 23.5028L171.022 23.5026C166.504 23.0899 159.205 22.5292 154.75 22.2922C150.313 22.0562 144.063 21.4884 140.785 21.0435L140.718 21.5389L140.785 21.0435C124.374 18.8174 101.1 18.087 86.3127 19.2631L86.3119 19.2632C81.826 19.6264 79.0038 19.9051 77.3808 20.191C76.5895 20.3304 76.0055 20.4829 75.6583 20.6895C75.4841 20.7932 75.268 20.97 75.2082 21.2594C75.146 21.5608 75.2887 21.8032 75.4097 21.9486L75.419 21.9597L75.4289 21.9703C75.5414 22.0905 75.6852 22.1353 75.7381 22.1513C75.8153 22.1747 75.9003 22.1909 75.9834 22.2031C76.1516 22.2279 76.3678 22.2442 76.6182 22.2545C77.1222 22.2751 77.8127 22.2729 78.6382 22.2496C80.2913 22.2029 82.5156 22.0708 84.9361 21.8588C95.1225 21.0447 105.204 20.9297 116.958 21.5097C119.738 21.6478 121.958 21.7781 123.625 21.9019C122.684 21.9567 121.567 22.0109 120.274 22.0645L120.272 22.0646C87.1303 23.5857 57.8819 29.0056 37.2136 36.6143C26.8829 40.4174 18.6646 44.7786 13.1761 49.4971C7.69179 54.212 4.85873 59.3542 5.51039 64.6957L5.51052 64.6967C6.20409 70.2813 9.20118 74.7438 16.3363 80.8787C27.0353 90.1083 34.8183 94.5714 50.1537 100.287L50.1541 100.287C68.6001 107.143 89.4559 110.983 117.538 112.613L117.538 112.613C153.136 114.67 186.388 111.892 221.638 103.949L221.639 103.949C247.682 98.0336 259.106 92.6585 267.634 82.0447L267.634 82.0441C269.25 80.026 270.261 78.631 270.945 77.1756C271.633 75.7125 271.978 74.2165 272.313 72.0178L272.314 72.0083C272.632 69.6176 272.788 68.161 272.512 66.7642C272.236 65.3651 271.536 64.0629 270.278 61.9481ZM140.285 108.077C153.775 108.489 169.736 108.459 178.919 107.983C155.892 110.472 125 110.639 102.24 108.333L102.24 108.333C93.705 107.472 70.3429 103.468 64.0916 101.801C58.9107 100.404 46.44 95.8832 40.5759 93.3354C62.2917 100.994 102 106.901 140.284 108.077L140.285 108.077ZM263.027 80.6541L263.025 80.6575C262.345 81.696 260.979 82.9736 259.046 84.3905C257.125 85.7989 254.685 87.3163 251.901 88.8423C246.334 91.894 239.424 94.9637 232.611 97.2502L232.61 97.2505C222.483 100.67 207.264 102.974 188.587 104.049C169.919 105.123 147.829 104.967 123.975 103.48L123.975 103.48C84.9478 101.06 50.8191 94.4686 32.2366 85.8664C27.9489 83.8693 23.8746 81.4121 20.9225 79.1801C19.4446 78.0626 18.2631 77.013 17.4779 76.1162C17.0848 75.6672 16.8035 75.2707 16.6323 74.9353C16.457 74.5919 16.4232 74.3642 16.4437 74.2298C16.4947 73.8956 16.523 73.5957 16.5082 73.3419C16.494 73.096 16.4353 72.8132 16.2345 72.5954C16.0183 72.3611 15.731 72.2996 15.4788 72.303C15.2349 72.3064 14.9628 72.3698 14.6806 72.4569C14.4567 72.5259 14.3053 72.5356 14.1852 72.5131C14.0695 72.4915 13.9343 72.4312 13.7591 72.2733C13.3807 71.9323 12.9274 71.2449 12.2263 69.9676L12.2257 69.9666C11.5082 68.6665 11.1352 67.7332 11.0143 66.6211C10.8913 65.4903 11.0246 64.138 11.3986 61.9908L11.3992 61.9876C11.908 58.9514 12.7441 56.7569 14.4417 54.6698C16.1554 52.5628 18.77 50.5361 22.9035 47.8878C34.259 40.6303 52.2134 34.6597 73.5764 30.6124C94.9272 26.5673 119.639 24.4514 144.478 24.8767C147.001 24.9352 153.178 25.6971 159.986 26.7214C166.783 27.7442 174.163 29.0214 179.073 30.1001C205.802 35.9964 225.554 42.151 240.48 49.2681C245.452 51.6438 250.345 54.7074 254.367 57.8352C258.398 60.9704 261.509 64.1358 262.97 66.7068C264.048 68.7224 264.619 71.3877 264.634 73.9821C264.648 76.5863 264.102 79.0393 263.027 80.6541ZM267.666 66.2473L267.661 66.2401C264.816 61.4714 259.774 56.8126 252.829 52.4184C245.879 48.0208 236.994 43.8693 226.425 40.1277C216.39 36.5504 195.58 30.7809 182.362 27.9363L182.361 27.9362C182.231 27.9084 182.101 27.8806 181.972 27.8528C184.16 28.2071 186.594 28.6103 189.158 29.045C202.174 31.2504 209.122 32.6961 215.361 34.4717L215.361 34.4718C225.821 37.4451 236.158 41.1145 242.133 43.946L242.134 43.9462C249.856 47.5978 256.192 51.6643 260.702 55.7393C265.152 59.7603 267.762 63.7338 268.257 67.2772L267.666 66.2473Z" fill="#DBE0FA" stroke="#DBE0FA"/>
</g>
<defs>
<clipPath id="clip0">
<rect width="264.245" height="97.0131" fill="white" transform="translate(15.396) rotate(8.6703)"/>
</clipPath>
</defs>
</svg>
