<svg width="55" height="53" viewBox="0 0 55 53" fill="none" xmlns="http://www.w3.org/2000/svg">
<g clip-path="url(#clip0)">
<path fill-rule="evenodd" clip-rule="evenodd" d="M19.7845 36.5292C26.372 42.2686 32.4748 42.9889 43.9397 39.5094C52.3506 36.8925 57.0965 33.9087 60.3862 29.1803C66.2744 20.5979 65.645 5.67592 59.176 -1.87875C55.7302 -5.78489 52.0577 -7.56429 43.7526 -9.11681C33.1371 -11.19 25.4901 -9.57664 20.189 -4.23781C17.2558 -1.33257 16.3315 0.491395 14.2969 7.02544C12.2444 13.6506 11.9655 16.2863 12.6921 22.0038C13.4784 28.6249 15.6079 32.9734 19.7845 36.5292ZM17.5488 19.1793C16.0826 12.1642 16.2636 8.33644 18.2802 5.28063C25.239 -5.14878 42.6706 -9.38865 52.1185 -3.03815C56.9711 0.205259 60.6268 5.69831 61.3318 10.8007C62.416 18.3175 60.4412 25.7552 56.1076 30.5003C53.5767 33.2835 52.6092 33.8772 48.3687 35.4857C34.0572 40.9438 20.6859 33.8547 17.5488 19.1793ZM15.4734 24.954C14.1256 19.5108 14.4784 16.9814 15.8606 22.0068C18.233 30.6761 24.7505 37.0157 33.1853 38.8718C37.5313 39.868 37.623 39.883 35.1699 40.0916C33.7785 40.1923 31.305 40.0212 29.6731 39.659C22.7047 38.0438 17.2349 32.3939 15.4734 24.954Z" fill="#DBE0FA"/>
</g>
<defs>
<clipPath id="clip0">
<rect width="55" height="52" fill="white" transform="translate(74.9199 20.6533) rotate(145.197)"/>
</clipPath>
</defs>
</svg>
