<?xml version="1.0" encoding="utf-8"?>
<!-- Generator: Adobe Illustrator 21.0.0, SVG Export Plug-In . SVG Version: 6.00 Build 0)  -->
<svg version="1.1" id="Layer_1" xmlns="http://www.w3.org/2000/svg" xmlns:xlink="http://www.w3.org/1999/xlink" x="0px" y="0px"
	 viewBox="0 0 73 24" style="enable-background:new 0 0 73 24;" xml:space="preserve">
<path id="mask" style="fill:#E8F0D0;" d="M55.6,8.9c-0.7,0-4.9-0.2-9.3-0.3c-10-0.4-22.3,0-32.7,0.9c-9.3,0.8-13.3,1.7-13.2,2.8
	c0,0.4,0.4,0.9,0.9,1c0.6,0.2,0.8,0.1,0.6-0.4c-0.1-0.5,0.8-0.8,3.8-1.1c6.3-0.8,18.4-1.5,27.4-1.6c0.8,0-0.3,0.3-2.4,0.7
	c-4.2,0.7-8.5,2-9,2.6c-0.2,0.2-0.1,0.7,0.2,1.1c0.5,0.6,1,0.6,4,0.3c5.8-0.6,14.9-0.7,22.8-0.4c11.6,0.4,11.7,0.4,11.4,1
	c-0.4,0.7-0.2,0.7,2.3,0.4c2.2-0.3,3.1-0.6,3.2-1.3c0.1-0.9-1.1-1.2-6.5-1.6c-6.8-0.5-16-0.8-20.9-0.7c-4.1,0,1-0.5,7.5-0.8
	c6-0.3,8.3-0.1,16.5,0.8c5.2,0.6,9.6,1,9.8,0.9c0.8-0.5-0.1-1.5-1.6-2C68.5,10.5,58,9,55.6,8.9z"/>
<path id="writeon" style="fill:#FFFFFF;stroke:#000000;stroke-width:3;stroke-miterlimit:10;" d="M1.6,14.3
	c-0.8-0.7-0.9-2.3-0.9-2.3s14.2-2.3,18.9-2.4c4.8-0.1,19.7-2,30.5-1.3s23.1,4,23.1,4l-9.6-1.1c0,0-14.9-1.3-22.8-0.9
	c-7.9,0.4-16.3,1.2-17.9,2.8c-1.7,1.6-1.3,2.3-1.3,2.3s1.8-0.8,6.1-1.3s7.8-1.6,16.5-1.2c8.7,0.4,17,0.7,20.4,1.8
	c3.4,1.1-5.1,2.1-5.1,2.1"/>
</svg>
