<svg width="203" height="138" viewBox="0 0 203 138" fill="none" xmlns="http://www.w3.org/2000/svg">
<g clip-path="url(#clip0)">
<path fill-rule="evenodd" clip-rule="evenodd" d="M181.835 62.4271C163.402 60.5908 142.516 59.9925 111.114 60.4622C68.0682 61.0548 53.8651 61.652 35.8086 63.7819C26.59 64.8262 18.9614 65.3379 19.0463 64.8535C19.0935 63.4248 1.02934 68.445 0.446153 69.9801C-0.342854 72.0569 1.59538 72.1733 11.5558 70.4808C18.127 69.3607 21.0506 69.2315 21.175 70.2087C21.5283 72.4095 27.361 72.9722 48.8497 72.7662C82.2079 72.6264 116.941 74.8688 161.65 80.0745C170.581 81.091 178.803 82.148 180.085 82.4282C184.829 83.5073 187.632 83.4354 188.146 82.081C188.901 80.0944 184.209 79.1385 156.964 75.711C118.277 70.8299 86.3991 68.6388 48.143 68.3645C42.8137 68.3031 53.3299 67.2352 66.9267 66.4076C102.752 64.2086 122.478 64.4693 170.693 68.0108C185.75 69.081 198.937 69.8543 199.975 69.7319C201.012 69.6095 202.083 68.8795 202.357 68.1571C203.215 65.8997 195.872 63.8333 181.835 62.4271Z" fill="#E8F0D0"/>
</g>
<defs>
<clipPath id="clip0">
<rect width="188.101" height="76.1161" fill="white" transform="translate(27.0322) rotate(20.8022)"/>
</clipPath>
</defs>
</svg>
