<svg width="1150" height="574" viewBox="0 0 1150 574" fill="none" xmlns="http://www.w3.org/2000/svg">
<mask id="path-1-inside-1" fill="white">
<path d="M862.021 287.022C899.714 324.714 929.613 369.461 950.012 418.708C970.411 467.956 980.91 520.739 980.91 574.043C980.91 627.348 970.411 680.131 950.012 729.378C929.613 778.626 899.714 823.373 862.021 861.065L734.429 733.472C755.365 712.536 771.973 687.681 783.304 660.326C794.635 632.971 800.467 603.652 800.467 574.043C800.467 544.435 794.635 515.116 783.304 487.761C771.973 460.406 755.365 435.551 734.429 414.614L862.021 287.022Z"/>
</mask>
<path d="M862.021 287.022C899.714 324.714 929.613 369.461 950.012 418.708C970.411 467.956 980.91 520.739 980.91 574.043C980.91 627.348 970.411 680.131 950.012 729.378C929.613 778.626 899.714 823.373 862.021 861.065L734.429 733.472C755.365 712.536 771.973 687.681 783.304 660.326C794.635 632.971 800.467 603.652 800.467 574.043C800.467 544.435 794.635 515.116 783.304 487.761C771.973 460.406 755.365 435.551 734.429 414.614L862.021 287.022Z" stroke="#212121" stroke-width="2" mask="url(#path-1-inside-1)"/>
<mask id="path-2-inside-2" fill="white">
<path d="M287.979 861.065C250.286 823.373 220.387 778.626 199.988 729.378C179.59 680.131 169.09 627.348 169.09 574.043C169.09 520.739 179.59 467.956 199.988 418.708C220.387 369.461 250.286 324.714 287.979 287.022L415.571 414.614C394.635 435.551 378.027 460.406 366.696 487.761C355.365 515.116 349.534 544.435 349.534 574.043C349.534 603.652 355.365 632.971 366.696 660.326C378.027 687.681 394.635 712.536 415.571 733.472L287.979 861.065Z"/>
</mask>
<path d="M287.979 861.065C250.286 823.373 220.387 778.626 199.988 729.378C179.59 680.131 169.09 627.348 169.09 574.043C169.09 520.739 179.59 467.956 199.988 418.708C220.387 369.461 250.286 324.714 287.979 287.022L415.571 414.614C394.635 435.551 378.027 460.406 366.696 487.761C355.365 515.116 349.534 544.435 349.534 574.043C349.534 603.652 355.365 632.971 366.696 660.326C378.027 687.681 394.635 712.536 415.571 733.472L287.979 861.065Z" stroke="#212121" stroke-width="2" mask="url(#path-2-inside-2)"/>
<mask id="path-3-inside-3" fill="white">
<path d="M286.978 288.025C325.144 249.593 370.615 219.187 420.713 198.599C470.811 178.012 524.523 167.659 578.684 168.15C632.845 168.642 686.36 179.968 736.076 201.462C785.793 222.955 830.704 254.181 868.166 293.3L737.842 418.102C717.034 396.373 692.087 379.028 664.472 367.089C636.856 355.15 607.131 348.859 577.046 348.586C546.962 348.313 517.127 354.064 489.3 365.499C461.472 376.935 436.215 393.824 415.016 415.172L286.978 288.025Z"/>
</mask>
<path d="M286.978 288.025C325.144 249.593 370.615 219.187 420.713 198.599C470.811 178.012 524.523 167.659 578.684 168.15C632.845 168.642 686.36 179.968 736.076 201.462C785.793 222.955 830.704 254.181 868.166 293.3L737.842 418.102C717.034 396.373 692.087 379.028 664.472 367.089C636.856 355.15 607.131 348.859 577.046 348.586C546.962 348.313 517.127 354.064 489.3 365.499C461.472 376.935 436.215 393.824 415.016 415.172L286.978 288.025Z" stroke="#1C433A" stroke-width="400" mask="url(#path-3-inside-3)"/>
<circle cx="800" cy="354" r="29" fill="#1C433A"/>
<circle cx="347" cy="354" r="29" fill="#FBF9F4"/>
</svg>
