<?xml version="1.0" encoding="utf-8"?>
<!-- Generator: Adobe Illustrator 21.0.0, SVG Export Plug-In . SVG Version: 6.00 Build 0)  -->
<svg version="1.1" id="Layer_1" xmlns="http://www.w3.org/2000/svg" xmlns:xlink="http://www.w3.org/1999/xlink" x="0px" y="0px"
	 viewBox="0 0 1150 574" style="enable-background:new 0 0 1150 574;" xml:space="preserve">
<defs>
	<filter id="Adobe_OpacityMaskFilter" filterUnits="userSpaceOnUse" x="733" y="285.6" width="248.9" height="576.9">
		<feColorMatrix  type="matrix" values="1 0 0 0 0  0 1 0 0 0  0 0 1 0 0  0 0 0 1 0"/>
	</filter>
</defs>
<mask maskUnits="userSpaceOnUse" x="733" y="285.6" width="248.9" height="576.9" id="path-1-inside-1">
	<path style="fill:#FFFFFF;filter:url(#Adobe_OpacityMaskFilter);" d="M862,287c37.7,37.7,67.6,82.4,88,131.7
		c20.4,49.2,30.9,102,30.9,155.3c0,53.3-10.5,106.1-30.9,155.3c-20.4,49.2-50.3,94-88,131.7L734.4,733.5
		c20.9-20.9,37.5-45.8,48.9-73.1c11.3-27.4,17.2-56.7,17.2-86.3c0-29.6-5.8-58.9-17.2-86.3c-11.3-27.4-27.9-52.2-48.9-73.1L862,287z
		"/>
</mask>
<path style="display:none;mask:url(#path-1-inside-1);fill:none;stroke:#212121;stroke-width:2;" d="M862,287
	c37.7,37.7,67.6,82.4,88,131.7c20.4,49.2,30.9,102,30.9,155.3c0,53.3-10.5,106.1-30.9,155.3c-20.4,49.2-50.3,94-88,131.7
	L734.4,733.5c20.9-20.9,37.5-45.8,48.9-73.1c11.3-27.4,17.2-56.7,17.2-86.3c0-29.6-5.8-58.9-17.2-86.3
	c-11.3-27.4-27.9-52.2-48.9-73.1L862,287z"/>
<defs>
	<filter id="Adobe_OpacityMaskFilter_1_" filterUnits="userSpaceOnUse" x="168.1" y="285.6" width="248.9" height="576.9">
		<feColorMatrix  type="matrix" values="1 0 0 0 0  0 1 0 0 0  0 0 1 0 0  0 0 0 1 0"/>
	</filter>
</defs>
<mask maskUnits="userSpaceOnUse" x="168.1" y="285.6" width="248.9" height="576.9" id="path-2-inside-2">
	<path style="fill:#FFFFFF;filter:url(#Adobe_OpacityMaskFilter_1_);" d="M288,861.1c-37.7-37.7-67.6-82.4-88-131.7
		c-20.4-49.2-30.9-102-30.9-155.3c0-53.3,10.5-106.1,30.9-155.3c20.4-49.2,50.3-94,88-131.7l127.6,127.6
		c-20.9,20.9-37.5,45.8-48.9,73.1c-11.3,27.4-17.2,56.7-17.2,86.3c0,29.6,5.8,58.9,17.2,86.3c11.3,27.4,27.9,52.2,48.9,73.1
		L288,861.1z"/>
</mask>
<path style="display:none;mask:url(#path-2-inside-2);fill:none;stroke:#212121;stroke-width:2;" d="M288,861.1
	c-37.7-37.7-67.6-82.4-88-131.7c-20.4-49.2-30.9-102-30.9-155.3c0-53.3,10.5-106.1,30.9-155.3c20.4-49.2,50.3-94,88-131.7
	l127.6,127.6c-20.9,20.9-37.5,45.8-48.9,73.1c-11.3,27.4-17.2,56.7-17.2,86.3c0,29.6,5.8,58.9,17.2,86.3
	c11.3,27.4,27.9,52.2,48.9,73.1L288,861.1z"/>
<path id="segment-1_1_" style="display:none;fill:#1C433A;" d="M845.7,874.6c40.2-36.3,72.8-80.2,95.8-129.3
	c23-49,35.9-102.2,38-156.3c2.1-54.1-6.6-108.1-25.7-158.8c-19.1-50.7-48.1-97.1-85.4-136.4l-43.9,41.6c3.4,4.9,5.3,10.9,5.1,17.3
	c-0.5,16-13.8,28.6-29.9,28.1c-6.3-0.2-12.1-2.4-16.8-6L737.4,418c20.7,21.8,36.8,47.6,47.4,75.7c10.6,28.2,15.4,58.2,14.3,88.2
	c-1.2,30.1-8.4,59.6-21.1,86.8c-12.8,27.2-30.8,51.7-53.2,71.8l40.5,44.9c-4.3,4.9-7,11.3-7.2,18.3c-0.5,16,12.1,29.4,28.1,29.9
	c6.6,0.2,12.7-1.8,17.7-5.4L845.7,874.6z"/>
<path style="fill:#FFFFFF;stroke:#000000;stroke-miterlimit:10;" d="M576,167c-224.8,0-407,182.2-407,407s182.2,407,407,407
	s407-182.2,407-407S800.8,167,576,167z M576,799c-124.3,0-225-100.7-225-225s100.7-225,225-225s225,100.7,225,225S700.3,799,576,799
	z"/>
<path style="display:none;fill:#FFFFFF;stroke:#000000;stroke-miterlimit:10;" d="M576,349c124.3,0,225,100.7,225,225h182
	c0-224.8-182.2-407-407-407S169,349.2,169,574h182C351,449.7,451.7,349,576,349z"/>
<path id="segment-2" style="display:none;fill:#1C433A;" d="M982.2,573.4c-0.1-54.2-11.1-107.7-32.3-157.6
	c-21.2-49.9-52.1-95-91-132.7c-38.9-37.7-84.9-67.3-135.4-86.9c-50.5-19.6-104.4-29-158.5-27.5l1.7,60.4c5.9,0.8,11.6,3.3,16.3,7.8
	c11.6,11,12,29.4,1,41c-4.4,4.6-9.9,7.4-15.7,8.5L570,349c30.1-0.8,60,4.4,88,15.3c28,10.9,53.6,27.3,75.2,48.3
	c21.6,20.9,38.8,46,50.5,73.7c11.8,27.7,17.9,57.5,17.9,87.5l60.4-0.2c0.8,6.5,3.7,12.8,8.8,17.6c11.6,11,30,10.6,41-1
	c4.5-4.8,7.1-10.7,7.8-16.8L982.2,573.4z"/>
<g id="torus">
	<path id="quarter-1" style="fill:#1C433A;" d="M288.2,286.1c-0.1,0.1-0.1,0.1-0.2,0.2l44.9,44.9c11.3-11.3,29.7-11.3,41,0
		c11.3,11.3,11.3,29.7,0,41l42.7,42.7c0.1-0.1,0.1-0.1,0.2-0.2c87.9-87.9,230.3-87.9,318.2,0l42.7-42.7c11.3,11.3,29.7,11.3,41,0
		c11.3-11.3,11.3-29.7,0-41l45-45C704.8,127.2,447.1,127.2,288.2,286.1z"/>
	<path id="quarter-2_1_" style="fill:#1C433A;" d="M863.8,286.1c-0.1-0.1-0.1-0.1-0.2-0.2l-44.9,44.9c11.3,11.3,11.3,29.7,0,41
		c-11.3,11.3-29.7,11.3-41,0l-42.7,42.7c0.1,0.1,0.1,0.1,0.2,0.2c87.9,87.9,87.9,230.3,0,318.2l42.7,42.7c-11.3,11.3-11.3,29.7,0,41
		c11.3,11.3,29.7,11.3,41,0l45,45C1022.7,702.7,1022.7,445,863.8,286.1z"/>
	<path id="quarter-3" style="fill:#1C433A;" d="M863.5,861.9c0.1-0.1,0.1-0.1,0.2-0.2l-44.9-44.9c-11.3,11.3-29.7,11.3-41,0
		c-11.3-11.3-11.3-29.7,0-41L735,733c-0.1,0.1-0.1,0.1-0.2,0.2c-87.9,87.9-230.3,87.9-318.2,0L374,775.8c-11.3-11.3-29.7-11.3-41,0
		c-11.3,11.3-11.3,29.7,0,41l-45,45C446.9,1020.8,704.6,1020.8,863.5,861.9z"/>
	<path id="quarter-4" style="fill:#1C433A;" d="M287.9,861.9c0.1,0.1,0.1,0.1,0.2,0.2l44.9-44.9c-11.3-11.3-11.3-29.7,0-41
		c11.3-11.3,29.7-11.3,41,0l42.7-42.7c-0.1-0.1-0.1-0.1-0.2-0.2c-87.9-87.9-87.9-230.3,0-318.2L374,372.3c11.3-11.3,11.3-29.7,0-41
		c-11.3-11.3-29.7-11.3-41,0l-45-45C129,445.2,129,702.9,287.9,861.9z"/>
</g>
<circle style="display:none;fill:#1C433A;" cx="890.3" cy="574" r="29"/>
<path style="display:none;fill:#34BCC6;" d="M168.7,574c0,0.1,0,0.2,0,0.3h182c0-0.1,0-0.2,0-0.3c0-124.3,100.7-225,225-225v-60.3
	c16,0,29-13,29-29s-13-29-29-29V167C350.9,167,168.7,349.2,168.7,574z"/>
</svg>
